<?xml version="1.0" encoding="UTF-8" standalone="no"?>
<svg width="66px" height="74px" viewBox="0 0 66 74" version="1.1" xmlns="http://www.w3.org/2000/svg" xmlns:xlink="http://www.w3.org/1999/xlink">
    <!-- Generator: Sketch 39.1 (31720) - http://www.bohemiancoding.com/sketch -->
    <title>reset</title>
    <desc>Created with Sketch.</desc>
    <defs></defs>
    <g id="Page-1" stroke="none" stroke-width="1" fill="none" fill-rule="evenodd">
        <g id="reset" fill="#FFFFFF">
            <path d="M60,40.752 L60,40.786 C60,55.706 47.981,67.844 33.062,67.844 C18.142,67.844 6.114,55.706 6.114,40.786 C6.114,25.961 18,13.889 33,13.738 L33,18.68 C33,21.52 35.54,21.593 36.947,20.327 L47.301,12.613 C47.301,12.613 48.429,11.671 48.429,10.634 C48.429,9.545 47.282,8.655 47.282,8.655 L36.95,0.941 C35.543,-0.325 33,-0.251 33,2.588 L33,7.737 C15,7.888 0.174,22.652 0.174,40.785 C0.174,59.014 14.86,73.843 33.088,73.843 C51.314,73.844 66,59.015 66,40.786 L66,40.752 C66,40.752 66,37.377 62.963,37.377 C60.109,37.376 60,40.752 60,40.752 L60,40.752 Z" id="Shape"></path>
        </g>
    </g>
</svg>
